<?xml version="1.0" encoding="UTF-8"?>
<svg id="Camada_1" xmlns="http://www.w3.org/2000/svg" version="1.1" viewBox="0 0 512 512">
  <!-- Generator: Adobe Illustrator 30.2.1, SVG Export Plug-In . SVG Version: 2.1.1 Build 1)  -->
  <defs>
    <style>
      .st0 {
        fill: #fff;
      }

      .st1 {
        fill: #1e1514;
      }

      .st2 {
        fill: #c30;
      }
    </style>
  </defs>
  <rect class="st0" y="0" width="512" height="512"/>
  <g id="Camada_1-2">
    <g>
      <path class="st1" d="M406.2,314.1v-122.1h-37.7v46.3c-.2-.5-.4-1-.5-1.5-3.9-9.8-9.5-18.3-16.8-25.5s-15.8-12.9-25.5-16.9c-9.8-4-20.5-6-32.2-6s-22.4,2-32.2,6c-9.8,4-18.3,9.6-25.5,16.9-7.2,7.2-12.9,15.8-16.9,25.5-4,9.8-6,20.5-6,32.2s0,1.7,0,2.5c-1.4-1.5-2.9-2.9-4.6-4.3-4.8-3.8-10.5-7.1-17.1-9.8-6.6-2.7-13.9-4.8-22.1-6.4-3.6-.6-7-1.4-10.2-2.3-3.3-1-6.1-2.1-8.7-3.6s-4.5-3-6-4.8c-1.5-1.8-2.2-3.9-2.2-6.4s.9-5.2,2.7-7.2c1.8-2,4.2-3.5,7.4-4.7,3.2-1.1,7-1.7,11.4-1.7s8.5.7,12.5,2c4.1,1.3,7.9,3.3,11.5,5.8,3.6,2.5,7,5.7,10.1,9.6l23.3-22.4c-3.7-5.6-8.2-10.4-13.4-14.4-5.3-4-11.5-7.1-18.9-9.2s-16.1-3.2-26.3-3.2-15.1,1.1-22.2,3.4c-7.1,2.3-13.4,5.5-18.8,9.8s-9.7,9.2-12.9,15.1c-3.2,5.8-4.8,12.2-4.8,19.2s1,12.4,3.1,17.7c2.1,5.3,5.2,9.9,9.4,14s9.5,7.5,15.9,10.3,13.8,5.2,22.4,7.1c3.1.6,6.1,1.3,9.1,2.1,3,.8,5.8,1.8,8.4,2.9,2.7,1.1,5,2.3,6.9,3.7s3.4,2.9,4.6,4.7c1.1,1.8,1.7,3.8,1.7,6s-.9,5.4-2.7,7.4-4.3,3.5-7.6,4.6c-3.3,1-6.9,1.6-10.9,1.6-8,0-15.7-1.7-23.2-5.1-7.5-3.4-14.9-10.1-22.3-20l-22.9,26c5,6.4,10.7,11.9,17.1,16.5,6.4,4.7,13.7,8.2,21.9,10.7,8.2,2.4,17.4,3.7,27.6,3.7s22.3-2,31.4-5.9,16.3-9.6,21.5-17.1c3.6-5.1,6-11,7.1-17.7,3.6,6.6,7.9,12.5,13.2,17.8s15.8,12.9,25.5,16.9,20.6,6,32.4,6,22.2-2,32-6c9.8-4,18.3-9.6,25.5-16.9s12.8-15.8,16.8-25.6c.2-.5.4-1,.5-1.5v47.8h107v-33.3h-69.3ZM332.2,287c-2.1,5.5-5,10.2-8.8,14.3-3.8,4.1-8.2,7.2-13.3,9.4-5.1,2.2-10.7,3.3-16.8,3.3s-11.7-1.1-16.8-3.3c-5.1-2.2-9.6-5.3-13.4-9.3s-6.8-8.8-8.8-14.3c-2-5.6-3-11.6-3-18.1s1-12.5,3-18c2-5.5,4.9-10.2,8.8-14.3s8.3-7.2,13.4-9.4c5.1-2.2,10.7-3.3,16.8-3.3s11.7,1.1,16.8,3.3c5.1,2.2,9.5,5.4,13.3,9.4,3.8,4.1,6.7,8.8,8.8,14.3,2.1,5.5,3.1,11.5,3.1,18s-1,12.5-3.1,18Z"/>
      <circle class="st2" cx="66.2" cy="192" r="29.6"/>
    </g>
  </g>
</svg>